<svg width="110" height="32" fill="none" xmlns="http://www.w3.org/2000/svg" viewBox="0 0 944 225"><g clip-path="url(#a)"><mask id="b" maskUnits="userSpaceOnUse" x="0" y="0" width="225" height="225" style="mask-type: alpha;"><path fill="#C4C4C4" d="M0 .522h224.101v224.101H0z"></path></mask><g mask="url(#b)"><path d="M221.085 3.538v218.07H3.015V3.538h218.07Zm3.016-3.016H0v224.101h224.101V.523Z" fill="#231F20"></path><path d="M107.283 202.858h.151c-4.264.002-8.524-.267-12.754-.805 4.178.552 8.388.821 12.603.805Z" fill="#fff"></path><path d="M98.052 55.755C85.251 68.088 74.77 83.352 66.61 101.546a126.864 126.864 0 0 0-.66 13.284c0 19.124 3.866 33.449 11.596 42.974 7.73 9.524 17.557 14.286 29.479 14.283 1.909.001 3.816-.11 5.712-.332-9.106-1.232-15.466-5.882-19.082-13.951-4.267-9.522-2.92-23.847 4.04-42.974 6.961-19.128 16.007-33.916 27.137-44.366a69.705 69.705 0 0 1 8.3-6.72c-6.249-5.966-14.962-8.95-26.141-8.95a40.347 40.347 0 0 0-8.938.96ZM155.809 185.392c-9.858 9.132-21.893 14.685-36.104 16.661 14.932-1.964 28.988-7.518 42.169-16.661 16.784-11.641 30.086-26.757 39.907-45.347h-22.57c-3.05 18.587-10.851 33.703-23.402 45.347ZM220.644 84.035a51.306 51.306 0 0 0-.095-31.81c-6.274-18.82-23.601-28.228-51.981-28.225A92.868 92.868 0 0 0 137 29.496c12.101 4.64 21.818 12.217 29.152 22.73a113.315 113.315 0 0 1 1.981 3.015c7.28 1.476 12.244 4.897 14.895 10.264 2.033 4.164 2.695 10.338 1.986 18.522l35.63.008Z" fill="#231F20"></path><path d="M138.735 29.868c-9.548-3.661-20.582-5.493-33.102-5.496-21.212 0-38.684 7.018-52.415 21.054-15.794 16.118-23.69 39.06-23.69 68.827 0 27.526 6.943 49.195 20.83 65.006 11.32 12.832 26.093 20.431 44.322 22.794 4.23.538 8.49.808 12.754.805h.142c4.057.009 8.109-.26 12.129-.805 14.214-1.964 26.249-7.518 36.104-16.661 12.546-11.641 20.346-26.757 23.402-45.347h-35.398c-2.334 8.79-5.276 15.384-8.826 19.783-5.369 6.843-12.781 10.819-22.234 11.927a48.89 48.89 0 0 1-5.711.332c-11.917 0-21.744-4.761-29.48-14.283-7.736-9.522-11.6-23.847-11.595-42.974-.013-4.437.207-8.871.66-13.284 1.357-12.827 4.803-23.186 10.337-31.077 5.533-7.891 12.568-12.796 21.106-14.714 2.928-.65 5.92-.973 8.92-.96 11.199 0 19.918 2.984 26.158 8.954a29.343 29.343 0 0 1 2.055 2.154c3.555 4.164 6.464 10.338 8.726 18.521h35.63c-.482-9.622-3.712-19.213-9.691-28.772a74.035 74.035 0 0 0-1.981-3.015c-7.334-10.545-17.052-18.134-29.152-22.769Zm37.547 51.524h-30.087c-2.291-7.499-5.212-13.352-8.701-17.457-.56-.65-1.15-1.267-1.753-1.87-6.853-6.84-16.505-10.285-28.751-10.285a45.63 45.63 0 0 0-4.91.258c-11.402 1.228-20.675 6.827-27.593 16.7-7.038 10.04-10.885 23.96-11.457 41.427-.052 1.529-.078 3.08-.078 4.665 0 9.782 1.008 18.487 3.015 25.874 2.033 7.538 5.169 13.93 9.27 18.999 8.295 10.217 18.999 15.399 31.818 15.399 6.641 0 12.519-1.149 17.634-3.446a33.268 33.268 0 0 0 12.672-9.95c3.527-4.38 6.4-10.497 8.761-18.646h29.483a80.34 80.34 0 0 1-7.201 20.877 69.921 69.921 0 0 1-14.645 19.245 59.925 59.925 0 0 1-20.447 12.492c-7.671 2.778-16.329 4.186-25.736 4.186-11.677 0-22.226-1.908-31.353-5.672a63.102 63.102 0 0 1-11.5-6.199 64.605 64.605 0 0 1-12.104-10.703c-6.633-7.551-11.686-16.648-15.011-27.037-3.36-10.488-5.066-22.592-5.066-35.979 0-14.481 1.939-27.45 5.76-38.55 3.781-11.019 9.51-20.495 17.074-28.188a65.234 65.234 0 0 1 22.367-15.101c8.34-3.347 17.72-5.044 27.89-5.044 10.687 0 20.326 1.396 28.769 4.152a65.16 65.16 0 0 1 6.835 2.636 58.649 58.649 0 0 1 24.164 20.137c.168.246.328.491.491.732 5.867 8.753 9.356 17.596 10.39 26.348Z" fill="#231F20"></path></g><path d="M461.141 3.538v218.07H243.066V3.538h218.075Zm3.015-3.016H240.051v224.101h224.105V.523Z" fill="#231F20"></path><path d="m370.298 114.515-10.776-33.567-16.321 22.635-10.174 30.853h43.664-20.215l13.822-19.921ZM437.747 28.36H397.43l-14.584 20.236 11.207 31.68 8.972-12.93-1.468 34.144 34.454 97.375 1.736-170.505ZM311.775 198.865l24.315-35.049h-12.754l-11.561 35.049Z" fill="#231F20"></path><path d="m394.054 80.276-11.199-31.68-7.159-20.244h-40.321l-60.866 170.513h37.267l11.56-35.049h62.788l11.251 35.049h38.636l-34.458-97.375-7.499-21.214Zm5.522 115.574-1.827-5.686-8.459-26.348-.293-.921-.672-2.094h-67.172l-.69 2.072-10.876 32.977h-30.801l2.05-5.781 56.663-158.694h36.056l7.146 20.197 11.234 31.758 9.278 26.219 30.534 86.301h-32.171Z" fill="#231F20"></path><path d="m372.461 111.396-10.768-33.489-3.666-11.483-2.834-8.822-2.903 8.796-14.942 45.304-7.185 21.791-1.292 3.958h51.955l-.965-3.015-.297-.921-7.103-22.119Zm4.234 23.04h-43.667l10.173-30.853 11.953-36.237 4.368 13.602 10.768 33.567 6.397 19.921h.008Z" fill="#231F20"></path><mask id="c" maskUnits="userSpaceOnUse" x="480" y="0" width="225" height="225" style="mask-type: alpha;"><path fill="#C4C4C4" d="M480.105.522h224.101v224.101H480.105z"></path></mask><g mask="url(#c)" fill="#231F20"><path d="M701.191 3.538v218.07h-218.07V3.538h218.07Zm3.015-3.016H480.105v224.101h224.101V.523Z"></path><path d="M561.983 162.951c5.906 7.015 16.024 10.524 30.353 10.527 2.899 0 5.6-.112 8.132-.319-10.268-1.008-16.789-4.411-19.563-10.208-1.827-3.857-1.874-9.679-.142-17.467h-25.276c1.103 7.788 3.268 13.61 6.496 17.467Z"></path><path d="M609.403 56.517c-5.522-2.765-12.342-4.19-20.46-4.273a73.077 73.077 0 0 0-14.064 23.591 62.649 62.649 0 0 0-3.445 13.577c4.074 1.395 9.658 2.923 16.751 4.583l29.914 7.068c13.117 3.084 22.946 7.211 29.488 12.379 10.165 8.021 15.248 19.626 15.248 34.816 0 15.581-6.022 28.518-18.065 38.809-11.633 9.947-27.9 15.089-48.802 15.425h2.287c21.979 0 40.864-5.148 56.654-15.442 15.791-10.295 26.522-23.224 32.193-38.787 5.525-15.191 4.663-26.796-2.584-34.816-4.664-5.169-12.991-9.296-24.983-12.38l-27.347-7.076c-10.561-2.7-17.255-5.052-20.081-7.056-4.439-3.012-5.55-7.562-3.333-13.65a26.705 26.705 0 0 1 7.925-11.362 25.577 25.577 0 0 0-7.296-5.406ZM707.091 78.39c5.97-18.12 4.269-31.942-5.104-41.467-9.372-9.525-23.156-14.287-41.35-14.287-13.921 0-26.438 2.063-37.551 6.19a69.41 69.41 0 0 1 14.106 8.097 47.613 47.613 0 0 1 13.586 15.412c6.834.338 12.258 1.737 16.273 4.195 6.963 4.307 8.896 11.594 5.797 21.86h34.243Z"></path><path d="M637.197 36.923a69.436 69.436 0 0 0-14.106-8.098c-9.646-4.126-20.459-6.19-32.439-6.19-21.78 0-38.292 5.052-49.534 15.154-11.242 10.102-16.863 22.788-16.863 38.06 0 16.732 5.743 29.03 17.229 36.896 6.789 4.709 19.253 9.066 37.392 13.072l18.461 4.049c10.803 2.315 18.7 4.975 23.69 7.982 4.974 3.084 7.462 7.441 7.465 13.072 0 9.64-5.08 16.233-15.239 19.779-3.547 1.229-7.804 2.049-12.771 2.46a99.697 99.697 0 0 1-8.133.319c-14.329 0-24.446-3.509-30.353-10.527-3.225-3.857-5.39-9.679-6.496-17.467h-34.027c0 17.738 6.43 31.676 19.292 41.816 12.862 10.139 30.522 15.209 52.98 15.209h2.235c20.899-.339 37.167-5.48 48.802-15.425 12.043-10.294 18.065-23.23 18.065-38.808 0-15.191-5.083-26.796-15.248-34.816-6.547-5.169-16.376-9.296-29.488-12.38l-29.935-7.09c-7.096-1.66-12.68-3.187-16.752-4.582a36.926 36.926 0 0 1-5.901-2.473c-5.536-3.012-8.303-7.562-8.3-13.65 0-6.633 2.806-11.802 8.417-15.506 5.611-3.704 13.123-5.555 22.536-5.552h.766c8.121.086 14.941 1.51 20.46 4.273a25.592 25.592 0 0 1 7.297 5.41c3.879 4.187 6.033 9.67 6.461 16.45h34.243c-.348-9.994-2.553-18.678-6.616-26.056a47.618 47.618 0 0 0-13.59-15.38ZM625.89 75.374c-.831-6.133-3.101-11.246-6.788-15.3a28.595 28.595 0 0 0-8.352-6.24c-5.276-2.645-11.681-4.157-19.073-4.515a70.109 70.109 0 0 0-3.501-.086c-9.968 0-18.091 2.038-24.195 6.03-6.486 4.278-9.773 10.338-9.773 18.018 0 7.142 3.407 12.775 9.855 16.286a41.97 41.97 0 0 0 7.086 2.925c4.113 1.37 9.528 2.838 16.333 4.428l29.923 7.055c12.62 2.972 22.148 6.943 28.316 11.811a35.052 35.052 0 0 1 10.54 13.563c2.361 5.393 3.558 11.746 3.558 18.888 0 7.322-1.426 14.076-4.234 20.115-2.808 6.039-7.111 11.561-12.776 16.402-5.664 4.842-12.641 8.546-20.705 10.988-8.184 2.477-17.729 3.73-28.372 3.73-13.31 0-24.931-1.852-34.76-5.526a60.233 60.233 0 0 1-16.338-9.045 46.185 46.185 0 0 1-13.593-16.954c-2.654-5.746-4.153-12.284-4.48-19.478h28.359c1.292 7.06 3.554 12.565 6.754 16.39 6.461 7.697 17.466 11.604 32.662 11.604 8.878 0 16.243-.991 21.899-2.947.324-.112.643-.228.956-.348 5.169-1.952 9.14-4.739 11.867-8.262 2.942-3.82 4.436-8.537 4.436-14.016 0-6.715-2.993-11.974-8.89-15.635-5.315-3.214-13.353-5.944-24.586-8.348l-18.457-4.045c-17.66-3.906-29.893-8.149-36.336-12.616a34.27 34.27 0 0 1-11.902-13.912c-2.67-5.72-4.023-12.616-4.023-20.499 0-7.176 1.331-13.822 3.955-19.744a47.592 47.592 0 0 1 11.896-16.058c10.622-9.545 26.611-14.382 47.523-14.382 10.312 0 19.813 1.61 28.351 4.807a66.405 66.405 0 0 1 16.397 8.886 45.19 45.19 0 0 1 11.858 12.922 51.745 51.745 0 0 1 1.909 3.506c2.774 5.698 4.466 12.289 5.039 19.62l-28.338-.018Z"></path></g><mask id="d" maskUnits="userSpaceOnUse" x="720" y="0" width="225" height="225" style="mask-type: alpha;"><path fill="#C4C4C4" d="M720.156.522h224.105v224.101H720.156z"></path></mask><g mask="url(#d)" fill="#231F20"><path d="M941.246 3.538v218.07H723.171V3.538h218.075Zm3.015-3.016H720.156v224.101h224.105V.523Z"></path><path d="M827.412 27.611h73.853v30.19h-33.601l-17.41 47.841v92.474h2.201l51.072-140.315h51.011l10.988-30.19H827.412Z"></path><path d="M850.262 57.81h51.012V27.61H763.151V57.81h51.257v140.306h35.854V57.81Zm-84.087-3.015V30.626h132.084v24.169h-51.012V195.1h-29.828V54.795h-51.257.013Z"></path></g></g><defs><clipPath id="a"><path fill="#fff" transform="translate(0 .734)" d="M0 0h944v224H0z"></path></clipPath></defs></svg>